<svg id="Capa_1" enable-background="new 0 0 512 512" height="512" viewBox="0 0 512 512" width="512" xmlns="http://www.w3.org/2000/svg"><g><circle cx="256" cy="256" fill="#ff633d" r="256"/><path d="m291.616 509.522c111.741-15.556 200.402-103.221 217.426-214.485l-104.226-104.226-17.932 17.932-57.356-57.356-61.303 61.303-37.569-37.568-130.894 130.893 38.416 38.416-5.827 5.827z" fill="#ee2600"/><path d="m99.762 151.386v154.631h42.441l30 7.718h42.442l17.882-84.348-17.882-78.001z" fill="#f9ec9b"/><path d="m329.527 313.735 26.882-64.766-26.882-64.767v-32.816h-56.315-58.567v162.349h58.567z" fill="#f7e46f"/><path d="m412.238 306.017h-28.903l-25.329 7.718h-28.479v-129.533h29.502l53.209 45.185z" fill="#f5db48"/><path d="m412.238 208.851c0-13.613-10.378-24.649-23.446-24.649h-29.924v45.186h53.37z" fill="#5f97fb"/><circle cx="370.757" cy="325.614" fill="#464646" r="35"/><circle cx="370.757" cy="325.614" fill="#d7f0f4" r="15"/><circle cx="157.203" cy="325.614" fill="#5a5a5a" r="35"/><circle cx="157.203" cy="325.614" fill="#e8f1f1" r="15"/></g></svg>